<svg width="59" height="59" viewBox="0 0 59 59" fill="none" xmlns="http://www.w3.org/2000/svg">
<path d="M35.1113 24.5852L54.7996 4.19482V28.6503L47.1296 36.5976L35.1113 24.5852Z" fill="#394B00"/>
<path d="M35.9903 4.19482V18.3548L29.5003 12.4548L23.0103 18.3548V4.19482H35.9903Z" fill="#394B00"/>
<path d="M53.6906 49.6247H38.1382V48.4447H53.6906C53.8471 48.4447 53.9971 48.3826 54.1078 48.2719C54.2184 48.1613 54.2806 48.0112 54.2806 47.8547V28.3198H55.4606V47.8547C55.4606 48.3242 55.2741 48.7744 54.9422 49.1063C54.6102 49.4382 54.16 49.6247 53.6906 49.6247Z" fill="#4A0E0E"/>
<path d="M18.8217 53.0999C18.112 53.1041 17.4152 52.9099 16.8098 52.5394C15.9573 51.9994 15.3416 51.1559 15.087 50.1794C14.9861 49.7736 15.032 49.3451 15.2168 48.9699C15.264 48.8814 15.3112 48.8165 15.3525 48.7457L15.4351 48.6277C16.7449 46.7515 21.2525 40.3264 24.1081 36.3911L25.0639 37.0814C22.2142 40.999 17.7007 47.4182 16.4027 49.2885L16.326 49.4006L16.2611 49.5068C16.2012 49.634 16.1887 49.7783 16.2257 49.9139C16.3985 50.5882 16.8201 51.1721 17.4057 51.5482C17.7246 51.736 18.0776 51.8587 18.4441 51.9093C18.8107 51.96 19.1837 51.9375 19.5415 51.8432C19.6866 51.8084 19.8131 51.7198 19.8955 51.5954L25.5477 43.2882L26.5507 43.949L20.8985 52.2444C20.6513 52.6176 20.2718 52.8832 19.8365 52.9878C19.5039 53.0651 19.1632 53.1027 18.8217 53.0999Z" fill="#4A0E0E"/>
<path d="M23.7242 54.5691C23.0679 54.5721 22.4246 54.3857 21.8716 54.0322C21.4031 53.7172 21.0168 53.2947 20.7448 52.8C20.4728 52.3053 20.3231 51.7527 20.3081 51.1884H21.4881C21.5031 51.5558 21.6037 51.9147 21.7819 52.2363C21.9601 52.558 22.2111 52.8335 22.5147 53.041C22.8509 53.251 23.236 53.3702 23.6321 53.3867C24.0282 53.4033 24.4218 53.3167 24.7744 53.1354C24.8534 53.0909 24.9187 53.0256 24.9632 52.9466L29.5003 45.8135L30.4974 46.4448L25.9603 53.5897C25.799 53.8416 25.5728 54.0455 25.3054 54.1797C24.8162 54.4318 24.2745 54.5652 23.7242 54.5691Z" fill="#4A0E0E"/>
<path d="M28.698 55.3008C28.1131 55.3076 27.5369 55.159 27.0283 54.8701C26.6182 54.6232 26.2624 54.2956 25.9825 53.9072C25.7026 53.5188 25.5044 53.0776 25.3999 52.6104L26.5799 52.3508C26.637 52.6472 26.7544 52.9287 26.9249 53.1778C27.0954 53.4269 27.3153 53.6383 27.5709 53.7988C27.8266 53.9592 28.1125 54.0654 28.411 54.1107C28.7094 54.1559 29.014 54.1393 29.3057 54.0618C29.4468 54.0248 29.5676 53.9336 29.642 53.8081L33.1053 48.1323L34.1142 48.7223L30.6214 54.4158C30.3791 54.807 29.9939 55.0885 29.5476 55.2005C29.269 55.2654 28.984 55.299 28.698 55.3008Z" fill="#4A0E0E"/>
<path d="M33.6303 55.3951C32.8449 55.3942 32.0902 55.0899 31.524 54.5456C30.9578 54.0014 30.6238 53.2593 30.5918 52.4746C30.5918 52.3181 30.654 52.1681 30.7646 52.0574C30.8753 51.9468 31.0253 51.8846 31.1818 51.8846C31.3383 51.8846 31.4883 51.9468 31.599 52.0574C31.7096 52.1681 31.7718 52.3181 31.7718 52.4746C31.7853 52.777 31.872 53.0715 32.0245 53.333C32.1769 53.5945 32.3906 53.815 32.647 53.9757C32.9035 54.1365 33.1951 54.2326 33.4969 54.2557C33.7987 54.2789 34.1016 54.2285 34.3796 54.1089C34.4997 54.0577 34.5979 53.9658 34.6569 53.8493L42.8284 37.9193C42.864 37.8503 42.9129 37.7891 42.9722 37.739C43.0315 37.6889 43.1001 37.651 43.1741 37.6275C43.2481 37.6039 43.3259 37.5952 43.4033 37.6017C43.4806 37.6082 43.5559 37.63 43.6249 37.6656C43.6939 37.7012 43.7551 37.7501 43.8052 37.8094C43.8553 37.8687 43.8931 37.9373 43.9167 38.0113C43.9403 38.0853 43.949 38.1631 43.9425 38.2405C43.9359 38.3178 43.9142 38.3931 43.8786 38.4621L35.6894 54.339C35.4988 54.7021 35.1881 54.9878 34.8103 55.1473C34.4369 55.3062 34.036 55.3904 33.6303 55.3951Z" fill="#4A0E0E"/>
<path d="M15.6119 49.625H5.31053C4.84109 49.625 4.39089 49.4385 4.05895 49.1066C3.72701 48.7746 3.54053 48.3244 3.54053 47.855V5.37498C3.54053 4.90555 3.72701 4.45534 4.05895 4.1234C4.39089 3.79146 4.84109 3.60498 5.31053 3.60498H54.8705C55.027 3.60498 55.1771 3.66714 55.2877 3.77779C55.3984 3.88843 55.4605 4.0385 55.4605 4.19498C55.4605 4.35146 55.3984 4.50153 55.2877 4.61217C55.1771 4.72282 55.027 4.78498 54.8705 4.78498H5.31053C5.15405 4.78498 5.00398 4.84714 4.89333 4.95779C4.78269 5.06843 4.72053 5.2185 4.72053 5.37498V47.855C4.72053 48.0115 4.78269 48.1615 4.89333 48.2722C5.00398 48.3828 5.15405 48.445 5.31053 48.445H15.6119C15.7684 48.445 15.9185 48.5071 16.0291 48.6178C16.1398 48.7284 16.2019 48.8785 16.2019 49.035C16.2019 49.1915 16.1398 49.3415 16.0291 49.4522C15.9185 49.5628 15.7684 49.625 15.6119 49.625Z" fill="#4A0E0E"/>
<path d="M18.745 40.1201C18.6112 40.1201 18.4775 40.1201 18.3438 40.1201C17.6256 40.0297 16.9345 39.7892 16.3154 39.4141C15.6964 39.039 15.1632 38.5377 14.7507 37.943C14.6623 37.8139 14.6288 37.655 14.6575 37.5012C14.6863 37.3474 14.775 37.2113 14.9041 37.1229L24.2614 30.7391C25.8256 29.6696 27.6766 29.0979 29.5714 29.0989L34.4389 28.7331C34.5164 28.7273 34.5943 28.7368 34.6681 28.7611C34.7419 28.7854 34.8102 28.8239 34.8691 28.8746C34.928 28.9253 34.9763 28.9871 35.0114 29.0564C35.0464 29.1258 35.0674 29.2014 35.0732 29.2789C35.079 29.3563 35.0695 29.4342 35.0452 29.508C35.0209 29.5818 34.9824 29.6501 34.9317 29.709C34.881 29.7679 34.8192 29.8162 34.7499 29.8513C34.6805 29.8863 34.6049 29.9073 34.5274 29.9131L29.6187 30.2789C27.9354 30.2666 26.2885 30.7689 24.8987 31.7185L16.0841 37.7601C16.6964 38.4393 17.5356 38.8715 18.4441 38.9755C19.0714 39.0255 19.7007 38.9074 20.2672 38.6333L24.2792 36.2379C24.4123 36.1777 24.5629 36.1691 24.702 36.2136C24.8411 36.2582 24.9588 36.3527 25.0322 36.479C25.1056 36.6053 25.1296 36.7543 25.0995 36.8972C25.0693 37.0401 24.9873 37.1668 24.8692 37.2527L20.8277 39.6481C20.1778 39.9603 19.4659 40.1217 18.745 40.1201Z" fill="#4A0E0E"/>
<path d="M44.5043 40.1673L42.9349 38.6038L32.3149 27.9838L35.4124 24.8804L35.8667 25.2639L36.2797 25.6828L33.9846 27.9838L44.4925 38.4858L54.375 28.2434C54.4858 28.1438 54.63 28.0898 54.7789 28.0921C54.9278 28.0945 55.0703 28.1531 55.1778 28.2561C55.2853 28.3591 55.3499 28.499 55.3586 28.6476C55.3672 28.7963 55.3194 28.9427 55.2246 29.0576L54.3986 29.919L44.5043 40.1673Z" fill="#4A0E0E"/>
<path d="M46.687 36.9928L34.2793 24.5969L54.3747 3.7876L55.2243 4.6077L35.9372 24.5792L36.2617 24.8978L47.5248 36.1609L46.687 36.9928Z" fill="#4A0E0E"/>
</svg>
