<svg width="43" height="59" viewBox="0 0 43 59" fill="none" xmlns="http://www.w3.org/2000/svg">
<path d="M30.7192 27.6562C30.7192 29.0874 30.386 30.4989 29.746 31.779C29.106 33.0591 28.1767 34.1726 27.0317 35.0312C25.436 36.228 23.4952 36.875 21.5005 36.875C19.5058 36.875 17.565 36.228 15.9692 35.0312C14.8243 34.1726 13.895 33.0591 13.255 31.779C12.615 30.4989 12.2817 29.0874 12.2817 27.6562" stroke="#4A0E0E" stroke-width="2" stroke-linejoin="round"/>
<path d="M12.2817 16.5938C12.2817 14.1488 13.253 11.804 14.9818 10.0751C16.7107 8.34626 19.0555 7.375 21.5005 7.375C23.9455 7.375 26.2903 8.34626 28.0191 10.0751C29.748 11.804 30.7192 14.1488 30.7192 16.5938" stroke="#4A0E0E" stroke-width="2" stroke-linejoin="round"/>
<path d="M36.2505 16.5938H38.0942V27.6562H30.7192V16.5938H36.2505Z" stroke="#394B00" stroke-width="2" stroke-linejoin="round"/>
<path d="M12.2817 27.6562H4.90674V16.5938H6.75049H12.2817V27.6562Z" stroke="#394B00" stroke-width="2" stroke-linejoin="round"/>
<path d="M36.2505 16.5938C36.2505 12.6818 34.6965 8.93009 31.9303 6.16393C29.1642 3.39776 25.4124 1.84375 21.5005 1.84375C17.5885 1.84375 13.8368 3.39776 11.0707 6.16393C8.3045 8.93009 6.75049 12.6818 6.75049 16.5938" stroke="#394B00" stroke-width="2" stroke-linejoin="round"/>
<path d="M12.2817 27.6562H21.5005" stroke="#394B00" stroke-width="2" stroke-linejoin="round"/>
<path d="M15.9692 35.0312V40.5625H1.21924V57.1562H41.7817V40.5625H27.0317V35.0312" stroke="#4A0E0E" stroke-width="2" stroke-linejoin="round"/>
</svg>
