<svg width="59" height="59" viewBox="0 0 59 59" fill="none" xmlns="http://www.w3.org/2000/svg">
<path d="M49.5242 46.3596L46.7358 51.3221C46.7076 51.3716 46.6667 51.4128 46.6174 51.4415C46.568 51.4701 46.512 51.4852 46.455 51.4852C46.3979 51.4852 46.3419 51.4701 46.2925 51.4415C46.2432 51.4128 46.2024 51.3716 46.1741 51.3221L43.3857 46.3636V46.0969H49.5282V46.3636L49.5242 46.3596Z" fill="white"/>
<path d="M49.5243 14.0872H43.3818V17.9666H49.5243V14.0872Z" fill="#EEEBD0"/>
<path d="M49.5243 10.6928V14.0873H43.3818V10.6928C43.3818 10.3498 43.5181 10.0209 43.7606 9.77841C44.0031 9.5359 44.332 9.39966 44.675 9.39966H48.2311C48.5741 9.39966 48.903 9.5359 49.1455 9.77841C49.3881 10.0209 49.5243 10.3498 49.5243 10.6928V10.6928Z" fill="#EEEBD0"/>
<path d="M49.5243 17.9668H43.3818V46.0928H49.5243V17.9668Z" fill="#EEEBD0"/>
<path d="M38.0474 20.3914H27.5406C27.4548 20.3914 27.3726 20.3574 27.312 20.2967C27.2513 20.2361 27.2173 20.1539 27.2173 20.0681V9.56128L38.0474 20.3914Z" fill="#EEEBD0"/>
<path d="M38.209 20.6864V49.4873C38.209 50.0018 38.0046 50.4952 37.6409 50.8589C37.2771 51.2227 36.7837 51.4271 36.2693 51.4271H8.78982C8.27538 51.4271 7.782 51.2227 7.41823 50.8589C7.05446 50.4952 6.8501 50.0018 6.8501 49.4873V11.3394C6.8501 10.8249 7.05446 10.3316 7.41823 9.96779C7.782 9.60402 8.27538 9.39966 8.78982 9.39966H26.9263C27.0109 9.40023 27.092 9.43354 27.1526 9.4926L27.2213 9.5613V20.0682C27.2213 20.1539 27.2553 20.2361 27.3159 20.2968C27.3766 20.3574 27.4588 20.3914 27.5445 20.3914H38.0514L38.1201 20.4601C38.1777 20.5214 38.2095 20.6024 38.209 20.6864ZM19.8018 26.6955C19.8018 25.8324 19.5458 24.9885 19.0663 24.2708C18.5867 23.5531 17.9051 22.9937 17.1076 22.6634C16.3101 22.3331 15.4326 22.2466 14.586 22.415C13.7394 22.5834 12.9617 22.9991 12.3513 23.6095C11.741 24.2198 11.3253 24.9975 11.1569 25.8441C10.9885 26.6907 11.0749 27.5682 11.4053 28.3657C11.7356 29.1632 12.295 29.8448 13.0127 30.3244C13.7304 30.804 14.5742 31.0599 15.4374 31.0599C16.5949 31.0599 17.705 30.6001 18.5235 29.7816C19.342 28.9632 19.8018 27.8531 19.8018 26.6955ZM19.8018 41.5668C19.8018 40.7036 19.5458 39.8598 19.0663 39.1421C18.5867 38.4243 17.9051 37.865 17.1076 37.5346C16.3101 37.2043 15.4326 37.1179 14.586 37.2863C13.7394 37.4547 12.9617 37.8703 12.3513 38.4807C11.741 39.0911 11.3253 39.8687 11.1569 40.7153C10.9885 41.5619 11.0749 42.4395 11.4053 43.237C11.7356 44.0344 12.295 44.7161 13.0127 45.1956C13.7304 45.6752 14.5742 45.9312 15.4374 45.9312C16.5949 45.9312 17.705 45.4713 18.5235 44.6529C19.342 43.8344 19.8018 42.7243 19.8018 41.5668Z" fill="#EEEBD0"/>
<path d="M15.417 21.523C14.3949 21.527 13.3968 21.8337 12.5488 22.4045C11.7009 22.9753 11.041 23.7846 10.6526 24.7301C10.2642 25.6756 10.1647 26.715 10.3665 27.717C10.5684 28.7191 11.0626 29.6389 11.7868 30.3602C12.511 31.0816 13.4327 31.5723 14.4355 31.7702C15.4384 31.9682 16.4774 31.8646 17.4214 31.4725C18.3654 31.0804 19.172 30.4174 19.7395 29.5672C20.307 28.717 20.6098 27.7178 20.6099 26.6956C20.6093 26.0148 20.4745 25.3407 20.2131 24.7121C19.9517 24.0834 19.5689 23.5125 19.0865 23.032C18.6042 22.5515 18.0318 22.1709 17.4021 21.912C16.7724 21.653 16.0979 21.5208 15.417 21.523V21.523Z" fill="#394B00"/>
<path d="M15.417 36.3941C14.3949 36.3981 13.3968 36.7048 12.5488 37.2756C11.7009 37.8464 11.041 38.6557 10.6526 39.6012C10.2642 40.5467 10.1647 41.5861 10.3665 42.5881C10.5684 43.5902 11.0626 44.51 11.7868 45.2313C12.511 45.9527 13.4327 46.4434 14.4355 46.6413C15.4384 46.8393 16.4774 46.7357 17.4214 46.3436C18.3654 45.9515 19.172 45.2885 19.7395 44.4383C20.307 43.5881 20.6098 42.5889 20.6099 41.5667C20.6093 40.8858 20.4745 40.2118 20.2131 39.5832C19.9517 38.9545 19.5689 38.3836 19.0865 37.9031C18.6042 37.4226 18.0318 37.042 17.4021 36.7831C16.7724 36.5241 16.0979 36.3919 15.417 36.3941V36.3941Z" fill="#394B00"/>
<path d="M23.1763 25.2407H31.2585" stroke="#394B00" stroke-width="2.4" stroke-miterlimit="10" stroke-linecap="round"/>
<path d="M23.1763 28.4736H33.5215" stroke="#394B00" stroke-width="2.4" stroke-miterlimit="10" stroke-linecap="round"/>
<path d="M23.1763 39.7886H31.2585" stroke="#394B00" stroke-width="2.4" stroke-miterlimit="10" stroke-linecap="round"/>
<path d="M23.1763 43.0215H34.168" stroke="#394B00" stroke-width="2.4" stroke-miterlimit="10" stroke-linecap="round"/>
<path d="M13.4775 26.6954L15.094 28.3119L17.357 25.7256" stroke="#EEEBD0" stroke-width="2.4" stroke-linecap="round" stroke-linejoin="round"/>
<path d="M13.4775 41.5668L15.094 43.1832L17.357 40.5969" stroke="#EEEBD0" stroke-width="2.4" stroke-linecap="round" stroke-linejoin="round"/>
<path d="M49.7058 17.7808H48.0894V46.0684H49.7058V17.7808Z" fill="#EEB8A9"/>
<path d="M49.7058 14.1438H48.0894V17.7808H49.7058V14.1438Z" fill="#EEB8A9"/>
<path d="M49.5243 17.9668H43.3818" stroke="#4A0E0E" stroke-width="2.4" stroke-miterlimit="10"/>
<path d="M48.2312 9.29443H46.6147C46.9877 9.31111 47.3421 9.46166 47.613 9.71847C47.8839 9.97528 48.0532 10.3212 48.0897 10.6927V14.1438H49.7062V10.6927C49.6696 10.3212 49.5004 9.97528 49.2294 9.71847C48.9585 9.46166 48.6041 9.31111 48.2312 9.29443V9.29443Z" fill="#EEB8A9"/>
<path d="M48.9965 45.6186V45.8848L46.2729 50.8372C46.2453 50.8866 46.2053 50.9277 46.1572 50.9563C46.109 50.9849 46.0542 51 45.9985 51C45.9428 51 45.8881 50.9849 45.8399 50.9563C45.7917 50.9277 45.7518 50.8866 45.7242 50.8372L43.0005 45.8888V10.2905C43.0005 9.94825 43.1336 9.62001 43.3705 9.37799C43.6073 9.13597 43.9286 9 44.2636 9H47.7373C48.0723 9 48.3936 9.13597 48.6305 9.37799C48.8674 9.62001 49.0005 9.94825 49.0005 10.2905V45.6186H48.9965Z" stroke="#4A0E0E" stroke-width="2.4" stroke-miterlimit="10"/>
<path d="M43.3818 14.0872H49.5243" stroke="#4A0E0E" stroke-width="2.4" stroke-miterlimit="10"/>
<path d="M49.5243 46.0928H43.3818" stroke="#4A0E0E" stroke-width="2.4" stroke-miterlimit="10"/>
<path d="M38.0473 21.0137C38.0769 20.9231 38.0769 20.8254 38.0473 20.7349V20.6136H27.5404C27.3626 20.6096 27.0757 20.5692 27.0757 20.3914V22.0078C27.0757 22.1856 27.3626 22.226 27.5404 22.226H38.0473V22.3472" fill="#C3C7CD"/>
<path d="M38.0474 20.3914H27.5406C27.4548 20.3914 27.3726 20.3574 27.312 20.2967C27.2513 20.2361 27.2173 20.1539 27.2173 20.0681V9.56128" stroke="#4A0E0E" stroke-width="2.4" stroke-miterlimit="10"/>
<path d="M27.2172 9.5613L27.1485 9.4926C27.0879 9.43354 27.0068 9.40023 26.9222 9.39966H8.78982C8.27538 9.39966 7.782 9.60402 7.41823 9.96779C7.05446 10.3316 6.8501 10.8249 6.8501 11.3394V49.4873C6.8501 50.0018 7.05446 50.4952 7.41823 50.8589C7.782 51.2227 8.27538 51.4271 8.78982 51.4271H36.2693C36.7837 51.4271 37.2771 51.2227 37.6409 50.8589C38.0046 50.4952 38.209 50.0018 38.209 49.4873V20.6864C38.2084 20.6018 38.1751 20.5207 38.1161 20.4601L38.0474 20.3914L27.2172 9.5613Z" stroke="#4A0E0E" stroke-width="2.4" stroke-miterlimit="10"/>
<path d="M49.9565 3.3623L51.2497 4.65546" stroke="#B8B9BA" stroke-width="1.6" stroke-miterlimit="10" stroke-linecap="round"/>
<path d="M51.2497 3.3623L49.9565 4.65546" stroke="#B8B9BA" stroke-width="1.6" stroke-miterlimit="10" stroke-linecap="round"/>
<path d="M56.5558 7.08421C57.0021 7.08421 57.364 6.72236 57.364 6.27599C57.364 5.82963 57.0021 5.46777 56.5558 5.46777C56.1094 5.46777 55.7476 5.82963 55.7476 6.27599C55.7476 6.72236 56.1094 7.08421 56.5558 7.08421Z" stroke="#B8B9BA" stroke-width="1.6" stroke-miterlimit="10" stroke-linecap="round"/>
<path d="M53.565 11.0685C53.9221 11.0685 54.2116 10.7791 54.2116 10.422C54.2116 10.0649 53.9221 9.77539 53.565 9.77539C53.2079 9.77539 52.9185 10.0649 52.9185 10.422C52.9185 10.7791 53.2079 11.0685 53.565 11.0685Z" fill="#B8B9BA"/>
<path d="M53.7471 51.322V53.7467" stroke="#B8B9BA" stroke-width="2" stroke-miterlimit="10" stroke-linecap="round"/>
<path d="M54.9593 52.5342H52.5347" stroke="#B8B9BA" stroke-width="2" stroke-miterlimit="10" stroke-linecap="round"/>
<path d="M2.88961 6.55464L3.83119 6.06163C3.83643 6.05852 3.84244 6.05696 3.84853 6.05712C3.85462 6.05728 3.86053 6.05916 3.8656 6.06254C3.87067 6.06592 3.87468 6.07066 3.87717 6.07622C3.87966 6.08177 3.88053 6.08792 3.87968 6.09395L3.69783 7.1406L4.50605 7.92861L3.39071 8.08217L2.88961 9.09245L2.39256 8.08217L1.34187 7.92861C1.33682 7.92582 1.33261 7.92172 1.32968 7.91674C1.32674 7.91177 1.3252 7.9061 1.3252 7.90032C1.3252 7.89455 1.32674 7.88888 1.32968 7.8839C1.33261 7.87893 1.33682 7.87483 1.34187 7.87204L2.1016 7.12847L1.89146 6.0293L2.88961 6.55464Z" fill="#ED9180"/>
<path d="M6.68857 4.65546C7.04566 4.65546 7.33514 4.36597 7.33514 4.00888C7.33514 3.65179 7.04566 3.3623 6.68857 3.3623C6.33147 3.3623 6.04199 3.65179 6.04199 4.00888C6.04199 4.36597 6.33147 4.65546 6.68857 4.65546Z" fill="#B8B9BA"/>
<path d="M49.524 55.9611C49.8811 55.9611 50.1706 55.6716 50.1706 55.3145C50.1706 54.9575 49.8811 54.668 49.524 54.668C49.1669 54.668 48.8774 54.9575 48.8774 55.3145C48.8774 55.6716 49.1669 55.9611 49.524 55.9611Z" fill="#B8B9BA"/>
<path d="M3.05138 12.6326C3.49775 12.6326 3.8596 12.2707 3.8596 11.8243C3.8596 11.378 3.49775 11.0161 3.05138 11.0161C2.60502 11.0161 2.24316 11.378 2.24316 11.8243C2.24316 12.2707 2.60502 12.6326 3.05138 12.6326Z" stroke="#B8B9BA" stroke-width="1.6" stroke-miterlimit="10" stroke-linecap="round"/>
</svg>
