<svg width="59" height="57" viewBox="0 0 59 57" fill="none" xmlns="http://www.w3.org/2000/svg">
<g filter="url(#filter0_d_32638:454)">
<path d="M29.5005 55.3125C44.7746 55.3125 57.1567 42.9304 57.1567 27.6562C57.1567 12.3821 44.7746 0 29.5005 0C14.2264 0 1.84424 12.3821 1.84424 27.6562C1.84424 42.9304 14.2264 55.3125 29.5005 55.3125Z" fill="#4A0E0E"/>
</g>
<path d="M29.5005 55.3125C44.7746 55.3125 57.1567 42.9304 57.1567 27.6562C57.1567 12.3821 44.7746 0 29.5005 0C14.2264 0 1.84424 12.3821 1.84424 27.6562C1.84424 42.9304 14.2264 55.3125 29.5005 55.3125Z" fill="#EEEBD0"/>
<path d="M56.6567 27.6562C56.6567 42.6542 44.4985 54.8125 29.5005 54.8125C14.5025 54.8125 2.34424 42.6542 2.34424 27.6562C2.34424 12.6583 14.5025 0.5 29.5005 0.5C44.4985 0.5 56.6567 12.6583 56.6567 27.6562Z" stroke="#394B00"/>
<path d="M29.5005 54.3906C44.2655 54.3906 56.2349 42.4212 56.2349 27.6562C56.2349 12.8913 44.2655 0.921875 29.5005 0.921875C14.7355 0.921875 2.76611 12.8913 2.76611 27.6562C2.76611 42.4212 14.7355 54.3906 29.5005 54.3906Z" stroke="#4A0E0E"/>
<g filter="url(#filter1_d_32638:454)">
<path d="M41.4849 33.4714C41.4849 38.2099 37.6388 41.3553 31.9601 41.8292V46.0938H28.0697V41.7867C24.2286 41.3536 20.5791 39.8783 17.5161 37.5203L20.3776 33.6005C22.9275 35.5825 25.341 36.875 28.2486 37.3064V28.8621C21.7199 27.2248 18.6795 24.8556 18.6795 19.9881C18.6795 15.3363 22.4795 12.1485 28.0697 11.717V9.21875H31.9601V11.8037C35.0006 12.1414 37.8995 13.2705 40.3675 15.0782L37.8619 19.1271C35.8946 17.7055 33.8831 16.8002 31.7812 16.3707V24.5551C38.5791 26.1923 41.4849 28.8197 41.4849 33.4714V33.4714ZM28.2467 23.6498V16.0683C25.4313 16.284 23.9563 17.7922 23.9563 19.6876C23.9563 21.4944 24.8045 22.6597 28.2486 23.6516L28.2467 23.6498ZM36.2081 33.772C36.2081 31.836 35.2677 30.6726 31.7812 29.6807V37.4797C34.5985 37.2622 36.2081 35.8407 36.2081 33.7738V33.772Z" fill="#4A0E0E"/>
</g>
<path d="M41.4849 33.4714C41.4849 38.2099 37.6388 41.3553 31.9601 41.8292V46.0938H28.0697V41.7868C24.2286 41.3536 20.5791 39.8783 17.5161 37.5203L20.3776 33.6005C22.9275 35.5825 25.341 36.875 28.2486 37.3064V28.8621C21.7199 27.2248 18.6795 24.8556 18.6795 19.9881C18.6795 15.3363 22.4795 12.1485 28.0697 11.717V9.21875H31.9601V11.8037C35.0006 12.1414 37.8995 13.2705 40.3675 15.0782L37.8619 19.1271C35.8946 17.7055 33.8831 16.8002 31.7812 16.3707V24.5551C38.5791 26.1923 41.4849 28.8197 41.4849 33.4714V33.4714ZM28.2467 23.6498V16.0683C25.4313 16.284 23.9563 17.7922 23.9563 19.6876C23.9563 21.4944 24.8045 22.6597 28.2486 23.6516L28.2467 23.6498ZM36.2081 33.772C36.2081 31.836 35.2677 30.6726 31.7812 29.6807V37.4797C34.5985 37.2622 36.2081 35.8407 36.2081 33.7738V33.772Z" fill="#394B00"/>
<defs>
<filter id="filter0_d_32638:454" x="0.844238" y="-0.5" width="57.3125" height="57.3125" filterUnits="userSpaceOnUse" color-interpolation-filters="sRGB">
<feFlood flood-opacity="0" result="BackgroundImageFix"/>
<feColorMatrix in="SourceAlpha" type="matrix" values="0 0 0 0 0 0 0 0 0 0 0 0 0 0 0 0 0 0 127 0" result="hardAlpha"/>
<feOffset dy="0.5"/>
<feGaussianBlur stdDeviation="0.5"/>
<feColorMatrix type="matrix" values="0 0 0 0 0 0 0 0 0 0 0 0 0 0 0 0 0 0 0.199474 0"/>
<feBlend mode="normal" in2="BackgroundImageFix" result="effect1_dropShadow_32638:454"/>
<feBlend mode="normal" in="SourceGraphic" in2="effect1_dropShadow_32638:454" result="shape"/>
</filter>
<filter id="filter1_d_32638:454" x="16.5161" y="8.71875" width="25.9688" height="38.875" filterUnits="userSpaceOnUse" color-interpolation-filters="sRGB">
<feFlood flood-opacity="0" result="BackgroundImageFix"/>
<feColorMatrix in="SourceAlpha" type="matrix" values="0 0 0 0 0 0 0 0 0 0 0 0 0 0 0 0 0 0 127 0" result="hardAlpha"/>
<feOffset dy="0.5"/>
<feGaussianBlur stdDeviation="0.5"/>
<feColorMatrix type="matrix" values="0 0 0 0 0 0 0 0 0 0 0 0 0 0 0 0 0 0 0.204257 0"/>
<feBlend mode="normal" in2="BackgroundImageFix" result="effect1_dropShadow_32638:454"/>
<feBlend mode="normal" in="SourceGraphic" in2="effect1_dropShadow_32638:454" result="shape"/>
</filter>
</defs>
</svg>
