<svg width="59" height="55" viewBox="0 0 59 55" fill="none" xmlns="http://www.w3.org/2000/svg">
<path d="M29.5007 17.6665H24.584V29.9582H29.5007V17.6665Z" fill="#394B00"/>
<path d="M39.3342 17.6665H34.4175V29.9582H39.3342V17.6665Z" fill="#394B00"/>
<path d="M49.1672 25.0415L44.2505 29.9582V17.6665H49.1672V25.0415Z" fill="#394B00"/>
<path d="M55.313 10.2916H18.438C17.7005 10.2916 17.2088 9.79992 17.2088 9.06242V7.83325V4.14575C17.2088 2.05617 15.6109 0.458252 13.5213 0.458252H0.000488281V2.91659H0.123405C0.615072 5.37492 2.58174 7.21867 5.04007 7.71034C5.53174 10.5374 8.11299 12.7499 11.063 12.7499H14.7505V29.9583H17.2088V12.5041C17.5776 12.627 17.9463 12.7499 18.438 12.7499H55.313C56.0505 12.7499 56.5422 13.2416 56.5422 13.9791V22.5833C56.5422 23.5666 55.9276 25.2874 55.1901 26.0249L47.4463 34.6291C46.8317 35.3666 45.2338 36.1041 44.2505 36.1041H18.438C16.3484 36.1041 14.7505 37.702 14.7505 39.7916V42.3728C11.9234 42.9874 9.83382 45.4458 9.83382 48.3958C9.83382 51.8374 12.538 54.5416 15.9797 54.5416C18.9297 54.5416 21.388 52.452 22.0026 49.6249H32.0817C32.6963 52.452 35.1547 54.5416 38.1047 54.5416C41.5463 54.5416 44.2505 51.8374 44.2505 48.3958C44.2505 44.9541 41.5463 42.2499 38.1047 42.2499C35.1547 42.2499 32.6963 44.3395 32.0817 47.1666H22.0026C21.5109 44.7083 19.6672 42.8645 17.2088 42.3728V39.7916C17.2088 39.0541 17.7005 38.5624 18.438 38.5624H44.2505C45.9713 38.5624 48.0609 37.5791 49.2901 36.3499L57.0338 27.7458C58.1401 26.5166 59.0005 24.3041 59.0005 22.5833V13.9791C59.0005 11.8895 57.4026 10.2916 55.313 10.2916ZM2.70465 2.91659H13.5213C14.2588 2.91659 14.7505 3.40825 14.7505 4.14575V5.37492H6.14632C4.5484 5.37492 3.19632 4.39159 2.70465 2.91659ZM11.063 10.2916C9.46507 10.2916 8.11299 9.30825 7.62132 7.83325H14.7505V9.06242V10.2916H11.063ZM38.1047 44.7083C40.1942 44.7083 41.7922 46.3062 41.7922 48.3958C41.7922 50.4853 40.1942 52.0833 38.1047 52.0833C36.0151 52.0833 34.4172 50.4853 34.4172 48.3958C34.4172 46.3062 36.0151 44.7083 38.1047 44.7083ZM19.6672 48.3958C19.6672 50.4853 18.0692 52.0833 15.9797 52.0833C13.8901 52.0833 12.2922 50.4853 12.2922 48.3958C12.2922 46.3062 13.8901 44.7083 15.9797 44.7083C18.0692 44.7083 19.6672 46.3062 19.6672 48.3958Z" fill="#4A0E0E"/>
<path d="M38.1045 50.2395C39.0878 50.2395 39.9482 49.3791 39.9482 48.3958C39.9482 47.4124 39.0878 46.552 38.1045 46.552C37.1212 46.552 36.2607 47.4124 36.2607 48.3958C36.2607 49.3791 37.1212 50.2395 38.1045 50.2395Z" fill="#303033"/>
<path d="M14.1357 48.3958C14.1357 49.3791 14.9962 50.2395 15.9795 50.2395C16.9628 50.2395 17.8232 49.3791 17.8232 48.3958C17.8232 47.4124 16.9628 46.552 15.9795 46.552C14.9962 46.552 14.1357 47.4124 14.1357 48.3958Z" fill="#303033"/>
</svg>
