<svg width="22" height="16" viewBox="0 0 22 16" fill="none" xmlns="http://www.w3.org/2000/svg">
<g clip-path="url(#clip0_32638:706)">
<path d="M21.9939 0H0.731819C0.728376 0 0.725586 0.00209867 0.725586 0.0046875V15.9953C0.725586 15.9979 0.728376 16 0.731819 16H21.9939C21.9973 16 22.0001 15.9979 22.0001 15.9953V0.0046875C22.0001 0.00209867 21.9973 0 21.9939 0Z" fill="black"/>
<g clip-path="url(#clip1_32638:706)">
<path fill-rule="evenodd" clip-rule="evenodd" d="M12.0036 2.00142C12.8339 2.00142 13.6643 1.99758 14.4946 2.00252C15.2758 2.00719 16.0095 2.18534 16.6452 2.66024C17.4754 3.28043 17.9002 4.12759 17.9792 5.14983C18.0071 5.50959 17.9984 5.87249 17.9989 6.23395C18.0008 7.63574 17.9997 9.03754 17.9996 10.4393C17.9995 11.0119 17.9199 11.5709 17.6776 12.0944C17.1862 13.1564 16.3289 13.737 15.1979 13.9382C14.962 13.9801 14.7187 13.9958 14.4788 13.9965C12.8226 14.0014 11.1663 14.0002 9.51003 13.9985C8.64876 13.9976 7.86105 13.7702 7.18979 13.2114C6.50779 12.6438 6.14791 11.9014 6.03596 11.0309C6.01665 10.8808 6.00482 10.7285 6.00468 10.5772C6.00306 8.83615 5.99255 7.09496 6.00962 5.35406C6.01894 4.4029 6.33565 3.55957 7.04372 2.89506C7.63106 2.3439 8.34497 2.05592 9.13832 2.02773C10.0923 1.99384 11.0484 2.0197 12.0035 2.0197C12.0036 2.0136 12.0036 2.00751 12.0036 2.00142ZM11.9942 12.891C12.7932 12.891 13.5921 12.8942 14.3911 12.8888C14.6 12.8874 14.812 12.877 15.017 12.84C15.8002 12.6984 16.3956 12.3056 16.7076 11.543C16.8661 11.1557 16.9179 10.74 16.9246 10.3375C16.9508 8.77569 16.9361 7.21322 16.9342 5.651C16.934 5.48176 16.9322 5.31063 16.9082 5.14364C16.8009 4.39378 16.4758 3.77917 15.7857 3.40541C15.4005 3.19681 14.9824 3.11804 14.5477 3.1179C12.8739 3.11741 11.2001 3.11692 9.52633 3.11892C9.37506 3.11911 9.22246 3.12748 9.07279 3.14851C8.2203 3.26821 7.59237 3.68835 7.27812 4.51492C7.1513 4.84847 7.11078 5.19798 7.11071 5.55284C7.11046 7.18646 7.10889 8.82006 7.11285 10.4537C7.11333 10.6536 7.12824 10.8563 7.16402 11.0527C7.32272 11.924 7.8086 12.5229 8.6739 12.7638C8.96225 12.844 9.27048 12.8794 9.57064 12.8855C10.3782 12.9017 11.1863 12.891 11.9942 12.891Z" fill="#EEEBD0"/>
<path fill-rule="evenodd" clip-rule="evenodd" d="M15.093 7.98024C15.0923 9.68856 13.6984 11.0781 11.9897 11.0739C10.2802 11.0697 8.90358 9.68994 8.90259 7.97979C8.90159 6.27154 10.2934 4.88193 12.0034 4.88379C13.6987 4.88562 15.0938 6.28378 15.093 7.98024ZM11.999 9.95858C13.0889 9.95942 13.9866 9.06239 13.9847 7.97431C13.9828 6.89377 13.0874 5.99669 12.0064 5.99229C10.918 5.98787 10.0208 6.88215 10.0185 7.97363C10.0162 9.06666 10.9052 9.95772 11.999 9.95858Z" fill="#EEEBD0"/>
<path fill-rule="evenodd" clip-rule="evenodd" d="M15.2078 5.50756C14.8209 5.5041 14.5159 5.19447 14.5171 4.8064C14.5183 4.41393 14.831 4.10621 15.2257 4.1089C15.6083 4.11155 15.92 4.42728 15.9189 4.8109C15.9177 5.19997 15.6002 5.51106 15.2078 5.50756Z" fill="#EEEBD0"/>
</g>
</g>
<defs>
<clipPath id="clip0_32638:706">
<rect x="0.725586" width="21.2745" height="16" rx="4" fill="white"/>
</clipPath>
<clipPath id="clip1_32638:706">
<rect width="12" height="12" fill="white" transform="translate(6 2)"/>
</clipPath>
</defs>
</svg>
