<svg width="75" height="55" viewBox="0 0 75 55" fill="none" xmlns="http://www.w3.org/2000/svg">
<path d="M5.28846 3.29341C3.96085 3.29341 2.88462 4.52217 2.88462 6.03792V48.9621C2.88462 50.4778 3.96085 51.7066 5.28846 51.7066H69.7115C71.0391 51.7066 72.1154 50.4778 72.1154 48.9621V6.03792C72.1154 4.52217 71.0391 3.29341 69.7115 3.29341H5.28846ZM5.28846 0H69.7115C72.6323 0 75 2.70327 75 6.03792V48.9621C75 52.2967 72.6323 55 69.7115 55H5.28846C2.36773 55 0 52.2967 0 48.9621V6.03792C0 2.70327 2.36773 0 5.28846 0Z" fill="black"/>
<path d="M68.8975 27.46C68.8975 39.9826 60.1545 50.1739 49.4087 50.1739C44.9267 50.1739 40.7949 48.3972 37.4985 45.426C34.2044 48.3972 30.0726 50.1739 25.5904 50.1739C14.8448 50.1739 6.10229 39.9826 6.10229 27.46C6.10229 14.9369 14.8448 4.75049 25.5904 4.75049C30.0726 4.75049 34.2044 6.52056 37.4985 9.49609C40.7949 6.52056 44.9267 4.75049 49.4087 4.75049C60.1545 4.75049 68.8975 14.9369 68.8975 27.46ZM49.3806 6.75657C45.4276 6.75657 41.778 8.26593 38.8297 10.813C41.5037 13.7134 43.4814 17.4797 44.4263 21.7242H42.6201C41.6948 17.9716 39.8859 14.6586 37.4705 12.109C35.0576 14.6586 33.2475 17.9716 32.3256 21.7242H30.5168C31.4639 17.4797 33.4415 13.7134 36.1156 10.813C33.1655 8.26593 29.5173 6.75657 25.5623 6.75657C15.7636 6.75657 7.82023 16.0135 7.82023 27.4353C7.82023 38.8542 15.7636 48.114 25.5623 48.114C29.5173 48.114 33.1655 46.6047 36.1156 44.0577C33.5994 41.3267 31.7012 37.8279 30.6977 33.8893H32.524C33.4943 37.3379 35.2168 40.3818 37.4705 42.7614C39.7267 40.3818 41.4514 37.3379 42.4217 33.8893H44.2476C43.2424 37.8279 41.3446 41.3267 38.8297 44.0577C41.778 46.6047 45.4276 48.114 49.3806 48.114C59.1793 48.114 67.1229 38.8542 67.1229 27.4353C67.1229 16.0135 59.1793 6.75657 49.3806 6.75657Z" fill="black" stroke="#979797"/>
<path d="M18.3859 22.4707H15.5449L13.7695 28.6392L13.6955 22.4707H11.0627L9.63354 32.4372H11.3469L12.4472 24.8229L12.6009 32.4372H13.8492L16.1885 24.7774L15.1404 32.4372H16.9702L18.3859 22.4707Z" fill="black"/>
<path d="M23.1015 32.4277H21.5848L21.62 31.5869C21.1571 32.251 20.5406 32.5686 19.7029 32.5686C18.7091 32.5686 18.0325 31.6643 18.0325 30.3565C18.0325 28.3803 19.2126 27.2315 21.2427 27.2315C21.4508 27.2315 21.7172 27.2541 21.9894 27.2948C22.0459 27.025 22.0596 26.9119 22.0596 26.7667C22.0596 26.232 21.7424 26.0302 20.8867 26.0302C19.9924 26.0166 19.2535 26.2774 18.9501 26.3951C18.9697 26.2591 19.205 24.5731 19.205 24.5731C20.1151 24.2605 20.7176 24.1426 21.3944 24.1426C22.9656 24.1426 23.7979 24.9628 23.796 26.5176C23.7979 26.9345 23.7395 27.4488 23.6481 28.1268C23.4887 29.298 23.1484 31.8136 23.1015 32.4277ZM21.8159 28.8552C21.6234 28.8323 21.5396 28.8234 21.4074 28.8234C20.369 28.8234 19.8458 29.2377 19.8458 30.0538C19.8458 30.5594 20.1026 30.881 20.4993 30.881C21.2461 30.881 21.7826 30.0538 21.8159 28.8552Z" fill="black"/>
<path d="M47.0633 22.248C44.6383 22.248 42.9424 24.7363 42.9424 28.2991C42.9424 30.9457 44.1699 32.6003 46.1397 32.6003C46.6451 32.6003 47.0825 32.5229 47.7554 32.3055L48.0763 30.0369C47.4715 30.3839 46.9739 30.549 46.5221 30.549C45.4586 30.549 44.8166 29.6335 44.8166 28.1218C44.8166 25.926 45.7721 24.3871 47.1388 24.3871C47.6464 24.3871 48.1208 24.5413 48.774 24.9266L49.0736 22.7648C48.8054 22.6425 47.8622 22.248 47.0633 22.248Z" fill="black"/>
<path d="M53.6451 32.4277H52.1306L52.1654 31.5869C51.7006 32.251 51.0822 32.5686 50.2458 32.5686C49.2542 32.5686 48.5735 31.6643 48.5735 30.3565C48.5735 28.3803 49.7579 27.2315 51.7861 27.2315C51.9941 27.2315 52.2605 27.2541 52.5331 27.2948C52.5889 27.025 52.6028 26.9119 52.6028 26.7667C52.6028 26.232 52.2858 26.0302 51.432 26.0302C50.5358 26.0166 49.7989 26.2774 49.4954 26.3951C49.5128 26.2591 49.7483 24.5731 49.7483 24.5731C50.6601 24.2605 51.2628 24.1426 51.9356 24.1426C53.509 24.1426 54.3415 24.9628 54.3393 26.5176C54.3432 26.9345 54.283 27.4488 54.1915 28.1268C54.034 29.298 53.6922 31.8136 53.6451 32.4277ZM52.3588 28.8552C52.1682 28.8323 52.0828 28.8234 51.9484 28.8234C50.9119 28.8234 50.3869 29.2377 50.3869 30.0538C50.3869 30.5594 50.6437 30.881 51.0445 30.881C51.7893 30.881 52.3278 30.0538 52.3588 28.8552Z" fill="black"/>
<path d="M32.1066 30.5497C31.9841 30.5999 31.8227 30.6267 31.6147 30.6267C31.1791 30.6267 30.9868 30.4456 30.9868 30.0262C30.9907 29.7681 31.292 27.8508 31.5022 26.312H32.4411L32.6901 24.3629H31.7547L31.9666 23.1396H30.1483C30.1483 23.1396 29.4602 27.9098 29.3571 28.6644C29.2404 29.5279 29.0927 30.4683 29.1041 30.8262C29.1041 31.98 29.6138 32.6079 30.549 32.6079C30.9733 32.6079 31.3635 32.5259 31.8659 32.3449L32.1066 30.5497Z" fill="black"/>
<path d="M37.6967 32.2421C37.0705 32.4644 36.4674 32.5686 35.8299 32.5686C33.7916 32.5637 32.7302 31.3243 32.7302 28.9516C32.7302 26.1821 34.0816 24.1426 35.9153 24.1426C37.4146 24.1426 38.3735 25.2824 38.3735 27.0772C38.3735 27.671 38.3055 28.2489 38.1476 29.0717H34.5269C34.4043 30.243 35.0502 30.7327 36.1081 30.7327C36.7591 30.7327 37.3448 30.5785 37.998 30.2251L37.6967 32.2421ZM36.7431 27.4879C36.7548 27.3202 36.9354 26.0372 35.8971 26.0372C35.3175 26.0372 34.9015 26.5563 34.7345 27.4879H36.7431Z" fill="black"/>
<path d="M24.5504 26.8847C24.5504 27.9114 24.9743 28.6161 25.9427 29.1487C26.6837 29.5565 26.7983 29.6742 26.7983 30.0441C26.7983 30.5467 26.4716 30.7734 25.7463 30.7734C25.2019 30.7734 24.6923 30.6781 24.1069 30.4564C24.1069 30.4564 23.866 32.2421 23.8542 32.3284C24.2724 32.4326 24.6418 32.5319 25.7599 32.5686C27.6907 32.5686 28.5815 31.7094 28.5815 29.8602C28.5815 28.7432 28.2099 28.095 27.2919 27.6029C26.5261 27.1906 26.4367 27.0999 26.4367 26.7215C26.4367 26.2818 26.7419 26.0596 27.3349 26.0596C27.6926 26.0596 28.1845 26.1051 28.6474 26.1821L28.9082 24.3012C28.4336 24.215 27.7161 24.1426 27.2979 24.1426C25.2504 24.1426 24.5426 25.3867 24.5504 26.8847Z" fill="black"/>
<path d="M63.9455 32.4372H62.2134L62.3006 31.6829C61.7969 32.3062 61.2819 32.5782 60.613 32.5782C59.2825 32.5782 58.4038 31.2432 58.4038 29.2173C58.4038 26.5178 59.7666 24.2472 61.3805 24.2472C62.0887 24.2472 62.629 24.5827 63.1291 25.3509L63.5334 22.4707H65.3383L63.9455 32.4372ZM61.2502 30.5797C62.1018 30.5797 62.7028 29.4531 62.7028 27.8487C62.7028 26.8176 62.3626 26.26 61.7321 26.26C60.9018 26.26 60.3126 27.3863 60.3126 28.9796C60.3126 30.0423 60.6279 30.5797 61.2502 30.5797Z" fill="black"/>
<path d="M55.6227 24.3414C55.3934 26.8481 54.9869 29.3884 54.6699 31.8996L54.5862 32.4455H56.4142C57.0697 27.4895 57.2288 26.5217 58.2536 26.6441C58.4167 25.6264 58.7202 24.7407 58.9496 24.292C58.1821 24.1058 57.7539 24.6136 57.1961 25.5723C57.2406 25.1552 57.3204 24.7539 57.303 24.3414H55.6227Z" fill="black"/>
<path d="M39.591 24.3414C39.3612 26.8481 38.953 29.3884 38.636 31.8996L38.5522 32.4455H40.382C41.0374 27.4895 41.1949 26.5217 42.2197 26.6441C42.3849 25.6264 42.6902 24.7407 42.9161 24.292C42.1516 24.1058 41.7203 24.6136 41.1617 25.5723C41.2066 25.1552 41.286 24.7539 41.2708 24.3414H39.591Z" fill="black"/>
</svg>
