<svg width="22" height="16" viewBox="0 0 22 16" fill="none" xmlns="http://www.w3.org/2000/svg">
<g clip-path="url(#clip0_32598:39)">
<path d="M21.9937 0H0.731697C0.728254 0 0.725464 0.00209867 0.725464 0.0046875V15.9953C0.725464 15.9979 0.728254 16 0.731697 16H21.9937C21.9972 16 22 15.9979 22 15.9953V0.0046875C22 0.00209867 21.9972 0 21.9937 0Z" fill="black"/>
<path d="M9.49163 12C9.08226 12 9.11948 11.8783 9.00783 11.5741L7.81696 8.38023L16.9346 4" fill="#C8DAEA"/>
<path d="M8.99426 11.625C9.28513 11.625 9.45133 11.5 9.65909 11.375L11.5289 10.0312L9.20202 8.96875" fill="#A9C9DD"/>
<path d="M9.91347 9.2759L14.8205 11.8848C15.3294 12.1219 15.7656 11.9902 15.911 11.5158L17.9102 4.71698C18.0919 4.13723 17.583 3.87371 17.0378 4.05817L5.36988 7.32584C4.60655 7.53666 4.60655 7.87923 5.22448 8.01099L8.24142 8.69615L15.1477 5.50754C15.4748 5.37578 15.7656 5.42848 15.5475 5.61295" fill="#F6FBFE"/>
</g>
<defs>
<clipPath id="clip0_32598:39">
<rect x="0.725464" width="21.2745" height="16" rx="4" fill="white"/>
</clipPath>
</defs>
</svg>
