<svg width="23" height="18" viewBox="0 0 23 18" fill="none" xmlns="http://www.w3.org/2000/svg">
<path d="M14.4151 0.666992H7.67644C1.53047 0.666992 0.0708008 1.77533 0.0708008 6.44199V11.5587C0.0708008 16.2253 1.53047 17.3337 7.67644 17.3337H14.4151C20.561 17.3337 22.0207 16.2253 22.0207 11.5587V6.44199C22.0207 1.77533 20.561 0.666992 14.4151 0.666992ZM17.7953 12.5587H16.193C15.5894 12.5587 15.4028 12.1837 14.3382 11.3587C13.3724 10.667 12.9554 10.567 12.7249 10.567C12.4066 10.567 12.3079 10.6337 12.3079 10.9837V12.0753C12.3079 12.367 12.1871 12.5503 11.1665 12.5503C9.47633 12.5503 7.59961 11.767 6.28262 10.3253C4.29615 8.20866 3.75838 6.60866 3.75838 6.29199C3.75838 6.11699 3.83521 5.95033 4.29615 5.95033H5.90947C6.31554 5.95033 6.46919 6.08366 6.62284 6.41699C7.41304 8.16699 8.73003 9.66699 9.2678 9.66699C9.47633 9.66699 9.56413 9.59199 9.56413 9.20866V7.41699C9.50925 6.60033 8.92758 6.52533 8.92758 6.23366C8.92758 6.08366 9.08123 5.95033 9.33365 5.95033H11.8469C12.1871 5.95033 12.3079 6.08366 12.3079 6.40033V8.80866C12.3079 9.06699 12.4505 9.15866 12.5603 9.15866C12.7578 9.15866 12.9334 9.06699 13.2956 8.78366C14.448 7.80866 15.2711 6.30033 15.2711 6.30033C15.3808 6.12533 15.5564 5.95866 15.9845 5.95866H17.5539C18.0368 5.95866 18.1465 6.15033 18.0368 6.40866C17.8392 7.11699 15.8857 9.20866 15.9076 9.20866C15.732 9.41699 15.6662 9.50866 15.9076 9.75033C16.0723 9.92533 16.632 10.292 17.0051 10.617C17.6856 11.2087 18.2124 11.7003 18.3551 12.042C18.4758 12.3837 18.2563 12.5587 17.7953 12.5587Z" fill="black"/>
</svg>
