<svg width="25" height="17" viewBox="0 0 25 17" fill="none" xmlns="http://www.w3.org/2000/svg">
<path d="M23.8585 2.59001C23.5647 1.57501 22.7704 0.791014 21.7634 0.506014L21.7422 0.501015C19.8477 1.46031e-05 12.2193 1.41846e-05 12.2193 1.41846e-05C12.2193 1.41846e-05 4.61111 -0.00998539 2.6964 0.501015C1.66813 0.791015 0.873884 1.57501 0.585158 2.56901L0.580093 2.59001C0.243753 4.30101 0.0512695 6.26901 0.0512695 8.28101C0.0512695 8.32201 0.0512695 8.36301 0.0512695 8.40301V8.39701C0.0512695 8.42501 0.0512695 8.45901 0.0512695 8.49201C0.0512695 10.504 0.243753 12.471 0.611498 14.378L0.580093 14.183C0.873884 15.198 1.66813 15.982 2.67513 16.267L2.6964 16.272C4.58983 16.774 12.2193 16.774 12.2193 16.774C12.2193 16.774 19.8264 16.774 21.7422 16.272C22.7704 15.982 23.5647 15.198 23.8534 14.204L23.8585 14.183C24.1816 12.508 24.366 10.579 24.366 8.60901C24.366 8.53501 24.366 8.46001 24.365 8.38601V8.39701C24.366 8.32801 24.366 8.24601 24.366 8.16401C24.366 6.19401 24.1816 4.26601 23.8281 2.39701L23.8585 2.59101V2.59001ZM9.78486 11.99V4.79401L16.1328 8.39802L9.78486 11.99Z" fill="black"/>
</svg>
